# xmcd CD database file
#
# Track frame offsets:
#	150
#	4762
#	15265
#	28811
#	39944
#	54905
#	71636
#	84822
#	94564
#	105922
#	115446
#	128143
#	140554
#	153150
#	163292
#	178346
#	192647
#
# Disc length: 2605 seconds
#
# Revision: 0
# Processed by: cddbd v1.4PL0 Copyright (c) Steve Scherf et al.
# Submitted via: Feurio! 1.65 - http://www.feurio.com
#
DISCID=d50a2b11
DTITLE=Chris Hillman and Herb Pederson - Way Out West
DYEAR=2002
DGENRE=Country
TTITLE0=Backporch Boy
TTITLE1=There You Go
TTITLE2=Invitation  To The Blues
TTITLE3=No Longer A Sweetheart Of Mine
TTITLE4=Problems
TTITLE5=Better Man That That
TTITLE6=The Old Cross Road
TTITLE7=Sugar Cane
TTITLE8=After All Is Said And Done
TTITLE9=You Done Me Wrong
TTITLE10=Save The Last Dance For Me
TTITLE11=Are You Missing Me ?
TTITLE12=That's The Way It Was
TTITLE13=You're Learning
TTITLE14=Our Love It Don't Come Easy
TTITLE15=Good Year
TTITLE16=Backporch Boy (Outro)
EXTD=
EXTT0=
EXTT1=
EXTT2=
EXTT3=
EXTT4=
EXTT5=
EXTT6=
EXTT7=
EXTT8=
EXTT9=
EXTT10=
EXTT11=
EXTT12=
EXTT13=
EXTT14=
EXTT15=
EXTT16=
PLAYORDER=
